<svg xmlns="http://www.w3.org/2000/svg" viewBox="15 13 121 38" role="img" aria-label="UniFi">
  <g fill="#000">
    <path d="M18 25.5v12.1c0 7.8 4.7 12.5 12.9 12.5s12.9-4.7 12.9-12.5V25.5h-7.4v11.8c0 4.2-1.8 6.2-5.5 6.2s-5.5-2-5.5-6.2V25.5H18Z"/>
    <path d="M51.1 31.5h7v2.8c1.8-2.3 4.2-3.4 7.1-3.4 6 0 9.4 3.8 9.4 10.3v8.2h-7.1v-7.7c0-3-1.5-4.6-4.3-4.6-3.1 0-5 2-5 5.3v7h-7.1V31.5Z"/>
    <path d="M82.1 31.5h7.1v17.9h-7.1V31.5Zm-.5-7.6c0-2.2 1.8-3.9 4.1-3.9 2.4 0 4.2 1.7 4.2 3.9s-1.8 3.9-4.2 3.9c-2.3 0-4.1-1.7-4.1-3.9Z"/>
    <path d="M97.4 25.5h22.4v6.4h-14.9v5.3h13.3v6.2h-13.3v6h-7.5V25.5Z"/>
    <path d="M126.6 31.5h7.1v17.9h-7.1V31.5Zm-.5-7.6c0-2.2 1.8-3.9 4.1-3.9 2.4 0 4.2 1.7 4.2 3.9s-1.8 3.9-4.2 3.9c-2.3 0-4.1-1.7-4.1-3.9Z"/>
    <circle cx="28.3" cy="18.7" r="3.5"/>
    <circle cx="35.5" cy="18.7" r="3.5"/>
  </g>
</svg>
